Coordinates
version=1
nRows=25
nColumns=24
inDegrees=yes

Units are S.I. units (second, meters, Newtons, ...)
If the header above contains a line with 'inDegrees', this indicates whether rotational values are in degrees (yes) or radians (no).

endheader
time	pelvis_tilt	pelvis_list	pelvis_rotation	pelvis_tx	pelvis_ty	pelvis_tz	hip_flexion_r	hip_adduction_r	hip_rotation_r	knee_angle_r	ankle_angle_r	subtalar_angle_r	mtp_angle_r	hip_flexion_l	hip_adduction_l	hip_rotation_l	knee_angle_l	ankle_angle_l	subtalar_angle_l	mtp_angle_l	lumbar_extension	lumbar_bending	lumbar_rotation
1.700000	10.030984	1.062455	-180.006370	0.279765	0.738331	-1.211058	46.255707	-21.882672	-20.019391	-64.580094	22.614618	9.136374	0.000000	47.005284	-24.638613	-16.675235	-63.856495	22.581944	15.828583	0.000000	-5.400342	2.500074	0.021762
1.705000	10.168733	1.162175	-180.336859	0.279312	0.741344	-1.210539	45.955759	-21.444575	-20.000046	-63.597649	22.072310	9.219147	0.000000	46.578683	-24.667044	-16.910772	-63.091530	22.286835	15.612667	0.000000	-5.141666	2.679656	0.530072
1.710000	10.208071	1.200529	-180.361099	0.278866	0.744347	-1.210629	45.498339	-21.221786	-20.191000	-62.730594	21.652963	9.165978	0.000000	46.147987	-24.505074	-16.958964	-62.278282	21.851731	15.469993	0.000000	-5.029311	2.745932	0.459539
1.715000	10.236613	1.198166	-180.394824	0.278325	0.747334	-1.210632	45.053602	-21.045266	-20.355626	-61.892510	21.266081	9.139424	0.000000	45.670686	-24.315022	-17.049954	-61.463073	21.414589	15.316193	0.000000	-4.932871	2.745525	0.453139
1.720000	10.303299	1.228219	-180.465878	0.277874	0.750291	-1.210592	44.650603	-20.820686	-20.513983	-61.028769	20.858581	9.130764	0.000000	45.266035	-24.168602	-17.134616	-60.723485	20.947541	15.094864	0.000000	-4.811771	2.732637	0.636831
1.725000	10.374162	1.250842	-180.509117	0.277431	0.753232	-1.210723	44.237034	-20.584900	-20.670308	-60.149861	20.438544	9.055171	0.000000	44.852002	-24.006299	-17.193205	-59.895193	20.514038	14.962427	0.000000	-4.661157	2.792083	0.546378
1.730000	10.300039	1.119352	-180.180006	0.276833	0.756124	-1.211316	43.610135	-20.706578	-21.019067	-59.407730	20.200678	9.042950	0.000000	44.341325	-23.537562	-17.128664	-58.970915	20.013979	14.899908	0.000000	-4.672115	2.471182	0.194587
1.735000	10.440822	1.210517	-180.530900	0.276330	0.759073	-1.210852	43.307838	-20.269970	-20.996549	-58.394124	19.665820	9.133881	0.000000	43.901804	-23.558574	-17.361876	-58.208239	19.642905	14.647231	0.000000	-4.460562	2.666106	0.600634
1.740000	10.385078	1.144565	-180.235345	0.275813	0.761889	-1.211497	42.707250	-20.307886	-21.376523	-57.651730	19.398180	9.068796	0.000000	43.431231	-23.175132	-17.269747	-57.256055	19.159590	14.592488	0.000000	-4.441711	2.474475	0.178688
1.745000	10.546096	1.250273	-180.593873	0.275264	0.764804	-1.210980	42.415986	-19.849768	-21.347808	-56.605925	18.915066	9.114639	0.000000	43.001779	-23.217648	-17.532382	-56.439941	18.804947	14.360297	0.000000	-4.225532	2.692934	0.590284
1.750000	10.507201	1.159910	-180.313054	0.274721	0.767540	-1.211559	41.845305	-19.901722	-21.701853	-55.856240	18.646360	9.057404	0.000000	42.542900	-22.814407	-17.448027	-55.536717	18.286387	14.279384	0.000000	-4.193386	2.406221	0.332795
1.755000	10.601179	1.311111	-180.717599	0.274050	0.770497	-1.211271	41.461635	-19.374316	-21.705694	-54.798282	18.083006	9.171581	0.000000	42.017002	-22.950643	-17.750150	-54.707135	17.951681	14.092275	0.000000	-4.025726	2.755963	0.619937
1.760000	10.618972	1.182028	-180.387660	0.273563	0.773133	-1.211821	40.949575	-19.467413	-22.028815	-54.038175	17.788048	9.076596	0.000000	41.610589	-22.473844	-17.631213	-53.740225	17.425720	14.032432	0.000000	-3.963466	2.489555	0.122860
1.765000	10.773643	1.249697	-180.753151	0.272986	0.775847	-1.211314	40.685136	-19.048821	-21.953720	-53.037055	17.221009	9.163856	0.000000	41.156541	-22.484904	-17.929051	-52.909800	17.084594	13.801628	0.000000	-3.736041	2.663709	0.585440
1.770000	10.822530	1.274234	-180.813657	0.272485	0.778530	-1.211382	40.253854	-18.803083	-22.094403	-52.131521	16.773581	9.087172	0.000000	40.700674	-22.336580	-18.020312	-52.040304	16.658039	13.655146	0.000000	-3.608723	2.681787	0.626254
1.775000	10.894655	1.280277	-180.858747	0.271893	0.781158	-1.211398	39.844236	-18.600605	-22.243130	-51.244679	16.350604	9.089597	0.000000	40.264931	-22.171506	-18.137301	-51.179066	16.213954	13.507768	0.000000	-3.465005	2.650612	0.714745
1.780000	10.909873	1.263411	-180.610700	0.271119	0.783856	-1.211684	39.255854	-18.563458	-22.634434	-50.366899	16.043378	9.114126	0.000000	39.829874	-21.824113	-18.017466	-50.220346	15.728812	13.402947	0.000000	-3.167748	1.531093	2.811363
1.785000	11.011020	1.269055	-180.920296	0.270687	0.786382	-1.211673	38.962369	-18.181467	-22.504542	-49.403274	15.510546	9.102137	0.000000	39.338344	-21.797596	-18.328684	-49.375362	15.405646	13.288320	0.000000	-3.218176	2.672969	0.484793
1.790000	10.998547	1.206729	-180.620237	0.270117	0.788774	-1.212294	38.399991	-18.184543	-22.863510	-48.610038	15.252164	9.028171	0.000000	38.930625	-21.436437	-18.193036	-48.501884	14.912367	13.290718	0.000000	-3.140654	2.328514	0.412257
1.795000	11.143413	1.268335	-180.980614	0.269470	0.791368	-1.211829	38.119374	-17.768587	-22.765867	-47.594778	14.682635	9.056847	0.000000	38.458270	-21.437021	-18.520013	-47.655252	14.617762	13.405244	0.000000	-2.918963	2.634868	0.535106
1.800000	11.129398	1.219443	-180.751488	0.268918	0.793720	-1.212432	37.599886	-17.725168	-23.086202	-46.833099	14.393394	8.971130	0.000000	38.018267	-21.142283	-18.506588	-46.728776	14.141180	13.421057	0.000000	-2.843727	2.394634	0.344722
1.805000	11.191557	1.211601	-180.776021	0.268264	0.796123	-1.212444	37.173907	-17.539072	-23.239959	-45.934281	13.973326	8.988424	0.000000	37.569588	-20.955790	-18.622982	-45.848454	13.700070	13.323715	0.000000	-2.703509	2.407053	0.275158
1.810000	11.273382	1.346898	-181.161207	0.267571	0.798597	-1.212143	36.803715	-17.016231	-23.118444	-44.891047	13.401477	9.005359	0.000000	37.035753	-21.051682	-18.933965	-44.995592	13.391496	13.126382	0.000000	-2.558473	2.583209	0.826527
1.815000	11.366446	1.259038	-181.116789	0.266990	0.800818	-1.212104	36.435106	-16.942428	-23.240656	-44.030250	12.963904	8.965839	0.000000	36.624375	-20.735353	-19.015960	-44.079701	12.981589	13.023413	0.000000	-2.397245	2.540614	0.552710
1.820000	11.345275	1.202002	-180.878810	0.266331	0.803045	-1.212688	35.883792	-16.885614	-23.527046	-43.219860	12.679035	8.893208	0.000000	36.177894	-20.427941	-18.968627	-43.169197	12.497783	13.011946	0.000000	-2.355353	2.336914	0.221015
